<?xml version="1.0" standalone="no"?>
<!DOCTYPE svg PUBLIC "-//W3C//DTD SVG 20010904//EN"
 "http://www.w3.org/TR/2001/REC-SVG-20010904/DTD/svg10.dtd">
<svg version="1.0" xmlns="http://www.w3.org/2000/svg"
 width="900.000000pt" height="900.000000pt" viewBox="0 0 900.000000 900.000000"
 preserveAspectRatio="xMidYMid meet">
<metadata>
Created by potrace 1.10, written by Peter Selinger 2001-2011
</metadata>
<g transform="translate(0.000000,900.000000) scale(0.100000,-0.100000)"
fill="#000000" stroke="none">
<path d="M4316 7583 c-54 -109 -101 -205 -106 -213 -5 -8 -25 -49 -45 -90 -20
-41 -40 -82 -45 -90 -5 -8 -19 -35 -30 -60 -12 -25 -26 -52 -31 -60 -5 -8 -12
-22 -15 -30 -3 -8 -10 -22 -15 -30 -5 -8 -12 -22 -15 -30 -3 -8 -10 -22 -15
-30 -5 -8 -12 -22 -15 -30 -3 -8 -10 -22 -15 -30 -5 -8 -12 -22 -15 -30 -3 -8
-10 -22 -15 -30 -5 -8 -12 -22 -15 -30 -10 -24 -604 -1224 -615 -1240 -5 -8
-12 -22 -15 -30 -3 -8 -10 -22 -15 -30 -5 -8 -12 -22 -15 -30 -3 -8 -10 -22
-15 -30 -5 -8 -12 -22 -15 -30 -3 -8 -10 -22 -15 -30 -5 -8 -12 -22 -15 -30
-3 -8 -10 -22 -15 -30 -5 -8 -12 -22 -15 -30 -3 -8 -10 -22 -15 -30 -5 -8 -12
-22 -15 -30 -3 -8 -10 -22 -15 -30 -5 -8 -12 -22 -15 -30 -3 -8 -10 -22 -15
-30 -5 -8 -12 -22 -15 -30 -3 -8 -10 -22 -15 -30 -5 -8 -12 -22 -15 -30 -8
-19 -542 -1100 -554 -1120 -5 -8 -25 -49 -45 -90 -20 -41 -40 -82 -45 -90 -5
-8 -19 -35 -30 -60 -12 -25 -26 -52 -31 -60 -5 -8 -12 -22 -15 -30 -3 -8 -10
-22 -15 -30 -5 -8 -12 -22 -15 -30 -3 -8 -10 -22 -15 -30 -5 -8 -12 -22 -15
-30 -3 -8 -10 -22 -15 -30 -5 -8 -12 -22 -15 -30 -3 -8 -10 -22 -15 -30 -5 -8
-12 -22 -15 -30 -3 -8 -10 -22 -15 -30 -5 -8 -12 -22 -15 -30 -4 -8 -218 -439
-476 -957 -258 -518 -467 -947 -463 -953 8 -14 24 -13 39 3 7 6 30 26 52 44
64 52 297 236 325 258 43 32 273 219 287 232 7 7 41 34 75 60 34 26 67 52 72
59 6 6 39 33 75 60 36 26 70 53 75 59 6 6 33 29 60 50 28 22 52 42 55 45 3 3
25 21 50 40 25 19 47 37 50 40 3 3 61 51 130 105 69 55 131 105 138 112 7 7
41 34 75 60 34 26 64 51 67 55 3 4 22 20 42 35 55 43 281 226 296 240 7 7 41
34 75 60 34 26 67 52 72 58 6 7 30 27 55 45 25 18 50 38 55 44 6 6 30 27 55
46 25 19 47 37 50 40 3 3 28 24 55 45 28 22 52 42 55 45 3 3 37 30 75 60 39
30 75 60 80 66 6 6 30 26 55 44 25 18 50 38 55 44 6 6 55 47 110 91 55 44 106
86 113 92 7 7 41 34 75 60 34 26 65 51 68 55 8 11 72 58 79 58 7 0 125 -88
190 -142 25 -20 95 -76 155 -123 61 -48 126 -100 145 -115 19 -16 130 -103
245 -195 116 -92 230 -183 255 -203 24 -20 76 -61 115 -91 38 -30 72 -57 75
-61 3 -3 41 -34 85 -68 44 -34 114 -89 155 -122 41 -33 109 -87 150 -120 41
-33 109 -87 150 -120 41 -33 111 -88 155 -122 44 -34 82 -65 85 -68 3 -4 46
-38 95 -76 92 -72 244 -192 280 -222 11 -9 52 -42 90 -72 39 -30 72 -57 75
-60 3 -3 33 -27 67 -53 34 -26 68 -53 75 -60 7 -7 49 -41 93 -75 44 -34 112
-88 152 -119 39 -32 100 -80 135 -107 35 -27 80 -65 101 -83 42 -37 67 -42 67
-14 0 11 -27 73 -59 138 -33 65 -175 352 -316 638 -142 286 -371 750 -510
1030 -139 281 -373 753 -520 1050 -147 297 -382 772 -522 1055 -141 283 -371
749 -513 1035 -541 1093 -705 1419 -716 1422 -6 2 -55 -85 -108 -194z m103
-198 c-10 -349 -28 -1835 -34 -2760 l-5 -670 -32 -34 c-18 -18 -60 -54 -93
-79 -33 -26 -64 -51 -70 -58 -5 -6 -39 -33 -75 -60 -36 -26 -69 -53 -75 -59
-5 -6 -32 -29 -60 -50 -27 -22 -52 -42 -55 -45 -3 -3 -50 -41 -105 -85 -55
-44 -102 -83 -105 -86 -3 -3 -30 -25 -61 -50 -107 -85 -204 -163 -209 -169 -3
-3 -50 -41 -105 -85 -55 -44 -106 -86 -113 -92 -7 -7 -41 -34 -75 -60 -34 -26
-66 -52 -72 -58 -5 -7 -30 -27 -55 -45 -25 -18 -49 -38 -55 -44 -5 -6 -55 -47
-110 -91 -55 -44 -102 -82 -105 -85 -3 -3 -36 -30 -75 -60 -38 -30 -72 -58
-75 -62 -3 -4 -31 -27 -61 -50 -102 -79 -183 -143 -199 -158 -8 -8 -94 -78
-190 -155 -96 -77 -179 -145 -185 -151 -5 -6 -39 -33 -75 -60 -36 -26 -69 -53
-75 -60 -5 -6 -38 -33 -73 -60 -35 -27 -94 -74 -132 -104 -38 -30 -97 -77
-132 -104 -35 -28 -76 -63 -92 -78 -39 -37 -59 -37 -50 -1 4 16 12 35 18 43 7
8 148 290 315 625 166 336 306 617 311 625 10 17 45 88 54 110 3 8 10 23 16
33 24 41 60 113 74 147 3 8 10 22 15 30 5 8 12 22 15 30 3 8 10 22 15 30 5 8
12 22 15 30 3 8 10 22 15 30 5 8 12 22 15 30 3 8 10 22 15 30 5 8 12 22 15 30
3 8 10 22 15 30 5 8 12 22 15 30 3 8 10 22 15 30 5 8 12 22 15 30 3 8 10 22
15 30 5 8 172 344 371 745 199 402 365 737 370 745 10 17 44 87 54 110 3 8 10
23 16 33 24 41 60 113 74 147 3 8 10 22 15 30 5 8 12 22 15 30 3 8 10 22 15
30 5 8 12 22 15 30 3 8 10 22 15 30 5 8 12 22 15 30 3 8 10 22 15 30 5 8 131
263 281 565 149 303 275 557 280 565 10 17 44 87 54 110 3 8 10 22 14 30 23
40 33 58 50 95 11 22 22 47 26 55 3 8 10 22 15 30 5 8 26 49 46 90 20 41 40
82 45 90 5 8 66 132 136 275 70 143 131 262 134 265 4 3 10 14 14 24 18 51 22
-22 15 -289z"/>
<path d="M3826 2867 c-12 -9 -17 -23 -14 -47 l3 -35 95 -5 95 -5 0 -635 0
-635 -85 -3 c-46 -2 -90 -8 -98 -14 -8 -7 -12 -26 -10 -47 l3 -36 260 0 260 0
0 45 0 45 -90 3 c-70 2 -93 6 -102 19 -10 13 -13 138 -13 545 0 460 2 528 15
528 8 0 103 -117 210 -260 108 -144 202 -269 210 -278 16 -20 1 0 294 -387
l224 -296 61 3 61 3 5 700 5 700 95 5 95 5 3 33 c6 62 5 62 -263 62 -268 0
-269 0 -263 -62 l3 -33 89 -3 c50 -2 96 -8 103 -14 10 -8 13 -113 13 -519 0
-279 -4 -510 -9 -513 -12 -8 -24 7 -277 342 -532 704 -596 787 -612 794 -33
13 -347 9 -366 -5z"/>
</g>
</svg>
